<svg width="24" height="24" viewBox="0 0 24 24" fill="none" xmlns="http://www.w3.org/2000/svg">
<g clip-path="url(#clip0_30_718)">
<path d="M5.48073 1.99171C5.39218 1.8778 5.28041 1.78404 5.15283 1.71665C5.02526 1.64926 4.88481 1.60978 4.74081 1.60084C4.59681 1.59191 4.45255 1.61371 4.31762 1.66481C4.1827 1.7159 4.06019 1.79513 3.95823 1.89721L2.40723 3.44971C1.68273 4.17571 1.41573 5.20321 1.73223 6.10471C3.04584 9.83609 5.18267 13.2239 7.98423 16.0167C10.7771 18.8182 14.1649 20.9551 17.8962 22.2687C18.7977 22.5852 19.8252 22.3182 20.5512 21.5937L22.1022 20.0427C22.2043 19.9408 22.2835 19.8182 22.3346 19.6833C22.3857 19.5484 22.4075 19.4041 22.3986 19.2601C22.3897 19.1161 22.3502 18.9757 22.2828 18.8481C22.2154 18.7205 22.1216 18.6088 22.0077 18.5202L18.5472 15.8292C18.4255 15.7348 18.284 15.6693 18.1333 15.6376C17.9826 15.6059 17.8266 15.6088 17.6772 15.6462L14.3922 16.4667C13.9537 16.5763 13.4944 16.5705 13.0588 16.4498C12.6232 16.3292 12.2263 16.0978 11.9067 15.7782L8.22273 12.0927C7.90288 11.7733 7.67122 11.3764 7.5503 10.9409C7.42938 10.5053 7.42333 10.0458 7.53273 9.60721L8.35473 6.32221C8.39209 6.1728 8.39503 6.01686 8.36333 5.86615C8.33163 5.71545 8.26612 5.5739 8.17173 5.45221L5.48073 1.99171ZM2.82573 0.76621C3.08822 0.503634 3.40357 0.299906 3.75084 0.168552C4.09811 0.0371982 4.46934 -0.0187748 4.8399 0.00434963C5.21046 0.0274741 5.57186 0.129167 5.9001 0.302675C6.22834 0.476184 6.51592 0.717537 6.74373 1.01071L9.43473 4.46971C9.92823 5.10421 10.1022 5.93071 9.90723 6.71071L9.08673 9.99571C9.04431 10.1659 9.0466 10.3441 9.09338 10.5131C9.14017 10.6821 9.22985 10.8361 9.35373 10.9602L13.0392 14.6457C13.1635 14.7698 13.3178 14.8597 13.4871 14.9065C13.6563 14.9533 13.8349 14.9554 14.0052 14.9127L17.2887 14.0922C17.6737 13.996 18.0754 13.9885 18.4636 14.0703C18.8519 14.1522 19.2164 14.3213 19.5297 14.5647L22.9887 17.2557C24.2322 18.2232 24.3462 20.0607 23.2332 21.1722L21.6822 22.7232C20.5722 23.8332 18.9132 24.3207 17.3667 23.7762C13.4085 22.3835 9.81464 20.1175 6.85173 17.1462C3.88066 14.1837 1.61464 10.5904 0.22173 6.63271C-0.32127 5.08771 0.16623 3.42721 1.27623 2.31721L2.82723 0.76621H2.82573Z" fill="#F6F7F9"/>
</g>
<defs>
<clipPath id="clip0_30_718">
<rect width="24" height="24" fill="white"/>
</clipPath>
</defs>
</svg>
