<svg width="20" height="20" viewBox="0 0 20 20" fill="none" xmlns="http://www.w3.org/2000/svg">
<path d="M16.2475 6.6574L10 12.7474L3.75253 6.6574C3.64091 6.54837 3.49107 6.48733 3.33503 6.48733C3.179 6.48733 3.02916 6.54837 2.91753 6.6574C2.86349 6.71036 2.82055 6.77356 2.79124 6.84332C2.76192 6.91308 2.74683 6.98798 2.74683 7.06365C2.74683 7.13932 2.76192 7.21422 2.79124 7.28398C2.82055 7.35374 2.86349 7.41694 2.91753 7.4699L9.56378 13.9499C9.6805 14.0637 9.83704 14.1273 10 14.1273C10.163 14.1273 10.3196 14.0637 10.4363 13.9499L17.0825 7.47115C17.137 7.41816 17.1802 7.35479 17.2098 7.2848C17.2393 7.21481 17.2545 7.13962 17.2545 7.06365C17.2545 6.98768 17.2393 6.91248 17.2098 6.8425C17.1802 6.77251 17.137 6.70914 17.0825 6.65615C16.9709 6.54712 16.8211 6.48608 16.665 6.48608C16.509 6.48608 16.3592 6.54712 16.2475 6.65615V6.6574Z" fill="#F6F7F9"/>
</svg>
