<svg width="42" height="42" viewBox="0 0 42 42" fill="none" xmlns="http://www.w3.org/2000/svg">
<path d="M21 39.375C10.8675 39.375 2.625 31.1325 2.625 21C2.625 10.8675 10.8675 2.625 21 2.625C31.1325 2.625 39.375 10.8675 39.375 21C39.375 31.1325 31.1325 39.375 21 39.375ZM21 5.25C12.3112 5.25 5.25 12.3112 5.25 21C5.25 29.6887 12.3112 36.75 21 36.75C29.6887 36.75 36.75 29.6887 36.75 21C36.75 12.3112 29.6887 5.25 21 5.25Z" fill="#FFC700"/>
<path d="M17.0625 23.625H14.4375C13.7025 23.625 13.125 23.0475 13.125 22.3125C13.125 21.5775 13.7025 21 14.4375 21H17.0625C19.2413 21 21 19.2413 21 17.0625C21 14.8837 19.2413 13.125 17.0625 13.125H14.4375C13.7025 13.125 13.125 12.5475 13.125 11.8125C13.125 11.0775 13.7025 10.5 14.4375 10.5H17.0625C18.803 10.5 20.4722 11.1914 21.7029 12.4221C22.9336 13.6528 23.625 15.322 23.625 17.0625C23.625 18.803 22.9336 20.4722 21.7029 21.7029C20.4722 22.9336 18.803 23.625 17.0625 23.625Z" fill="#FFC700"/>
<path d="M27.5625 18.375H14.4375C13.7025 18.375 13.125 17.7975 13.125 17.0625C13.125 16.3275 13.7025 15.75 14.4375 15.75H27.5625C28.2975 15.75 28.875 16.3275 28.875 17.0625C28.875 17.7975 28.2975 18.375 27.5625 18.375ZM27.5625 13.125H14.4375C13.7025 13.125 13.125 12.5475 13.125 11.8125C13.125 11.0775 13.7025 10.5 14.4375 10.5H27.5625C28.2975 10.5 28.875 11.0775 28.875 11.8125C28.875 12.5475 28.2975 13.125 27.5625 13.125ZM19.6875 31.5C19.2675 31.5 18.8475 31.29 18.585 30.9225L13.335 23.0475C13.1537 22.7586 13.0926 22.4103 13.1646 22.0769C13.2365 21.7435 13.436 21.4515 13.7203 21.2631C14.0046 21.0747 14.3513 21.0048 14.6863 21.0685C15.0214 21.1321 15.3183 21.3242 15.5137 21.6037L20.7637 29.4787C21.1575 30.0825 21 30.8963 20.3962 31.29C20.16 31.4475 19.9237 31.5 19.6612 31.5H19.6875Z" fill="#FFC700"/>
</svg>
