<svg width="55" height="40" viewBox="0 0 55 40" fill="none" xmlns="http://www.w3.org/2000/svg">
<path d="M54.0764 25.701C54.0764 28.1991 53.4218 30.6536 52.178 32.82C50.9343 34.9863 49.1447 36.7892 46.9876 38.0487C44.8303 39.3085 42.3807 39.9809 39.8828 39.9993C37.3847 40.0178 34.9255 39.3816 32.75 38.1539C31.2874 39.2286 29.5478 39.8622 27.7368 39.9799C25.9257 40.0977 24.1187 39.6946 22.5293 38.8185C20.5577 39.6045 18.4536 40.0056 16.331 39.9999C7.32587 39.9999 0 32.8945 0 24.1603C0 15.4261 7.32587 8.32071 16.331 8.32071H16.3348C18.1174 5.3465 20.7609 2.98356 23.9156 1.54444C27.0703 0.105328 30.5875 -0.342127 34.0021 0.26127C37.4167 0.864667 40.5676 2.49049 43.0381 4.92364C45.5084 7.35679 47.182 10.4826 47.8373 13.8876C49.767 15.1934 51.3456 16.9541 52.4335 19.0144C53.5217 21.0747 54.086 23.3711 54.0764 25.701ZM32.6052 34.4889C32.9376 34.4887 33.2622 34.5898 33.5357 34.7787C34.7498 35.6129 36.1191 36.1952 37.5623 36.4912C39.0055 36.7872 40.4934 36.7906 41.9379 36.5014C43.3823 36.212 44.7542 35.6361 45.9723 34.8075C47.1904 33.9789 48.2299 32.9144 49.0293 31.6768C49.8287 30.4395 50.3718 29.0542 50.6267 27.6032C50.8814 26.1522 50.8424 24.6647 50.5124 23.2292C50.1822 21.7934 49.5674 20.4385 48.7045 19.2445C47.8415 18.0505 46.7477 17.0417 45.4881 16.2778C45.2815 16.1523 45.1053 15.9827 44.9719 15.7811C44.8385 15.5796 44.7512 15.3511 44.7164 15.1119C44.2909 12.2149 42.9576 9.52746 40.9085 7.43595C38.8591 5.34446 36.1994 3.95666 33.3119 3.47212C30.4241 2.98756 27.4572 3.43123 24.8374 4.73929C22.2177 6.04737 20.0805 8.15246 18.7326 10.7519C18.5868 11.0342 18.3619 11.268 18.0854 11.4245C17.8089 11.5809 17.4927 11.6534 17.1757 11.633C16.8513 11.613 16.5823 11.6034 16.3296 11.6034C9.13392 11.6034 3.27966 17.2369 3.27966 24.1611C3.27966 31.0853 9.13472 36.7187 16.3296 36.7187C18.2786 36.7249 20.2052 36.304 21.974 35.4858C22.2327 35.3662 22.5181 35.3159 22.802 35.34C23.086 35.3642 23.3587 35.4619 23.5934 35.6235C24.7797 36.4393 26.2121 36.8184 27.6466 36.6963C29.081 36.5741 30.4287 35.9583 31.46 34.9537C31.7665 34.6553 32.1775 34.4885 32.6052 34.4889Z" fill="#F6F7F9"/>
<path d="M18.4608 18.3589H16.022C15.9249 18.3589 15.8319 18.3974 15.7633 18.466C15.6947 18.5347 15.6561 18.6277 15.6561 18.7247V24.456H15.6623L18.8263 21.2921V18.7249C18.8263 18.6279 18.7878 18.5349 18.7193 18.4663C18.6508 18.3976 18.5578 18.359 18.4608 18.3589Z" fill="#F6F7F9"/>
<path d="M28.4494 15.6857C28.0785 15.3148 27.5753 15.1064 27.0509 15.1064C26.5262 15.1064 26.0232 15.3148 25.6523 15.6857L19.4432 21.8948L18.8267 22.5116L15.6628 25.6755L8.41138 32.9269C10.3478 34.3428 12.6274 35.2159 15.0143 35.4554C17.4013 35.6951 19.8089 35.2928 21.9882 34.29C22.2469 34.1706 22.5321 34.1206 22.816 34.1446C23.0998 34.1688 23.3725 34.2665 23.6072 34.4279C24.7933 35.2437 26.2258 35.6228 27.6602 35.5007C29.0946 35.3785 30.4423 34.7626 31.4733 33.7579C31.7457 33.4934 32.1013 33.3312 32.4796 33.2993C32.8581 33.2675 33.2357 33.3676 33.5485 33.5829C35.4156 34.8689 37.6348 35.5465 39.9018 35.5225C42.1688 35.4985 44.3731 34.7744 46.2126 33.4491L28.4494 15.6857ZM26.9045 30.6176C26.9045 30.6919 26.8748 30.7632 26.8224 30.8159C26.7697 30.8683 26.6984 30.898 26.6241 30.898H24.3459C24.2716 30.898 24.2003 30.8683 24.1477 30.8159C24.095 30.7632 24.0656 30.6919 24.0656 30.6176V28.3394C24.0656 28.2651 24.095 28.1938 24.1477 28.1411C24.2003 28.0887 24.2716 28.059 24.3459 28.059H26.6241C26.6984 28.059 26.7697 28.0887 26.8224 28.1411C26.8748 28.1938 26.9045 28.2651 26.9045 28.3394V30.6176ZM26.9045 27.1673C26.9045 27.2416 26.8748 27.3129 26.8224 27.3656C26.7697 27.4183 26.6984 27.4477 26.6241 27.4477H24.3459C24.2716 27.4477 24.2003 27.4183 24.1477 27.3656C24.095 27.3129 24.0656 27.2416 24.0656 27.1673V24.8891C24.0656 24.8148 24.095 24.7435 24.1477 24.6909C24.2003 24.6384 24.2716 24.6088 24.3459 24.6088H26.6241C26.6984 24.6088 26.7697 24.6384 26.8224 24.6909C26.8748 24.7435 26.9045 24.8148 26.9045 24.8891V27.1673ZM30.5584 30.6176C30.5584 30.6919 30.5288 30.7632 30.4763 30.8159C30.4236 30.8683 30.3524 30.898 30.2781 30.898H27.9998C27.9255 30.898 27.8543 30.8683 27.8016 30.8159C27.7489 30.7632 27.7195 30.6919 27.7195 30.6176V28.3394C27.7195 28.2651 27.7489 28.1938 27.8016 28.1411C27.8543 28.0887 27.9255 28.059 27.9998 28.059H30.2781C30.3524 28.059 30.4236 28.0887 30.4763 28.1411C30.5288 28.1938 30.5584 28.2651 30.5584 28.3394V30.6176ZM30.5584 27.1673C30.5584 27.2416 30.5288 27.3129 30.4763 27.3656C30.4236 27.4183 30.3524 27.4477 30.2781 27.4477H27.9998C27.9255 27.4477 27.8543 27.4183 27.8016 27.3656C27.7489 27.3129 27.7195 27.2416 27.7195 27.1673V24.8891C27.7195 24.8148 27.7489 24.7435 27.8016 24.6909C27.8543 24.6384 27.9255 24.6088 27.9998 24.6088H30.2781C30.3524 24.6088 30.4236 24.6384 30.4763 24.6909C30.5288 24.7435 30.5584 24.8148 30.5584 24.8891V27.1673Z" fill="#F6F7F9"/>
</svg>
