<svg width="45" height="36" viewBox="0 0 45 36" fill="none" xmlns="http://www.w3.org/2000/svg">
<g clip-path="url(#clip0_62_5)">
<path d="M22.5 0L28.125 6.75H25.3125V11.25H19.6875V6.75H16.875L22.5 0ZM42.1875 15.75V33.75H2.8125V15.75H42.1875ZM45 13.5H0V36H45V13.5Z" fill="#FFC700"/>
<path d="M22.5 18C23.608 18 24.7052 18.1746 25.7289 18.5138C26.7526 18.853 27.6827 19.3502 28.4662 19.977C29.2497 20.6038 29.8712 21.3479 30.2952 22.1669C30.7193 22.9858 30.9375 23.8636 30.9375 24.75C30.9375 25.6364 30.7193 26.5142 30.2952 27.3331C29.8712 28.1521 29.2497 28.8962 28.4662 29.523C27.6827 30.1498 26.7526 30.647 25.7289 30.9862C24.7052 31.3254 23.608 31.5 22.5 31.5H36.5625V29.25H39.375V20.25H36.5625V18H22.5ZM14.0625 24.75C14.0625 22.9598 14.9514 21.2429 16.5338 19.977C18.1161 18.7112 20.2622 18 22.5 18H8.4375V20.25H5.625V29.25H8.4375V31.5H22.5C20.2622 31.5 18.1161 30.7888 16.5338 29.523C14.9514 28.2571 14.0625 26.5402 14.0625 24.75Z" fill="#FFC700"/>
</g>
<defs>
<clipPath id="clip0_62_5">
<rect width="45" height="36" fill="white"/>
</clipPath>
</defs>
</svg>
