<svg width="52" height="36" viewBox="0 0 52 36" fill="none" xmlns="http://www.w3.org/2000/svg">
<path d="M26 16.3664C40.3609 16.3664 52 12.7005 52 8.18321C52 3.66596 40.3609 0 26 0C11.6391 0 0 3.66596 0 8.18321C0 12.7005 11.6391 16.3664 26 16.3664ZM26 29.4504C16.0773 29.4504 7.30234 27.6481 1.76719 24.8641C0.639844 25.7844 0 26.7738 0 27.8168C0 32.334 11.6391 36 26 36C40.3609 36 52 32.334 52 27.8168C52 26.7738 51.3602 25.7844 50.2328 24.8718C44.6977 27.6481 35.9227 29.4504 26 29.4504ZM26 19.6336C16.0773 19.6336 7.30234 17.8313 1.76719 15.0473C0.639844 15.9676 0 16.957 0 18C0 22.5173 11.6391 26.1832 26 26.1832C40.3609 26.1832 52 22.5173 52 18C52 16.957 51.3602 15.9676 50.2328 15.055C44.6977 17.8313 35.9227 19.6336 26 19.6336Z" fill="#FFC700"/>
</svg>
