<svg width="35" height="20" viewBox="0 0 35 20" fill="none" xmlns="http://www.w3.org/2000/svg">
<path d="M21.3377 13.4388C21.5705 13.6235 21.8966 13.7347 22.2441 13.7478C22.5916 13.761 22.9322 13.675 23.191 13.5087L27.566 10.6962C27.7025 10.6083 27.8116 10.5009 27.8863 10.381C27.961 10.2611 27.9996 10.1313 27.9996 10C27.9996 9.86873 27.961 9.73893 27.8863 9.61899C27.8116 9.49905 27.7025 9.39165 27.566 9.30375L23.191 6.49125C22.9322 6.32483 22.5915 6.23864 22.2438 6.25165C21.8961 6.26466 21.5699 6.3758 21.3369 6.56063C21.1039 6.74545 20.9832 6.98881 21.0014 7.23718C21.0196 7.48555 21.1752 7.71858 21.434 7.885L23.268 9.0625H17.0625C16.7144 9.0625 16.3806 9.16127 16.1344 9.33709C15.8883 9.5129 15.75 9.75136 15.75 10C15.75 10.2486 15.8883 10.4871 16.1344 10.6629C16.3806 10.8387 16.7144 10.9375 17.0625 10.9375H23.268L21.434 12.115C21.3058 12.1974 21.2016 12.2971 21.1273 12.4084C21.0531 12.5196 21.0102 12.6402 21.0013 12.7632C20.9924 12.8863 21.0175 13.0094 21.0752 13.1255C21.1329 13.2417 21.2222 13.3473 21.3377 13.4388ZM0 3.4375C0 2.52582 0.50703 1.65148 1.40955 1.00682C2.31207 0.362164 3.53615 0 4.8125 0H30.1875C31.4639 0 32.6879 0.362164 33.5905 1.00682C34.493 1.65148 35 2.52582 35 3.4375V16.5625C35 17.0139 34.8755 17.4609 34.6337 17.878C34.3918 18.295 34.0373 18.674 33.5905 18.9932C33.1436 19.3124 32.613 19.5656 32.0292 19.7383C31.4453 19.9111 30.8195 20 30.1875 20H4.8125C4.18051 20 3.55472 19.9111 2.97084 19.7383C2.38696 19.5656 1.85643 19.3124 1.40955 18.9932C0.962667 18.674 0.60818 18.295 0.36633 17.878C0.124479 17.4609 0 17.0139 0 16.5625V3.4375ZM12.25 1.875V18.125H30.1875C31.395 18.125 32.375 17.425 32.375 16.5625V3.4375C32.375 2.575 31.395 1.875 30.1875 1.875H12.25Z" fill="black"/>
</svg>
