<svg width="55" height="41" viewBox="0 0 55 41" fill="none" xmlns="http://www.w3.org/2000/svg">
<path d="M27.4342 0C22.0082 0 16.7041 1.18426 12.1926 3.40302C7.68106 5.62178 4.16475 8.77538 2.08832 12.465C0.0118868 16.1547 -0.531402 20.2147 0.527153 24.1316C1.58571 28.0486 4.19856 31.6465 8.0353 34.4704C11.872 37.2944 16.7604 39.2175 22.0821 39.9966C27.4038 40.7757 32.9199 40.3759 37.9328 38.8476C42.9458 37.3193 47.2304 34.7312 50.2449 31.4105C53.2594 28.0899 54.8684 24.186 54.8684 20.1923C54.8684 14.837 51.978 9.70098 46.8331 5.91419C41.6882 2.1274 34.7102 0 27.4342 0ZM42.0273 21.4832L18.5122 30.137C18.2134 30.2469 17.8813 30.2988 17.5476 30.2877C17.2139 30.2765 16.8896 30.2028 16.6055 30.0735C16.3214 29.9441 16.0869 29.7635 15.9244 29.5487C15.7618 29.3339 15.6765 29.092 15.6767 28.8461V11.5385C15.6769 11.2927 15.7624 11.0511 15.9251 10.8364C16.0878 10.6218 16.3223 10.4414 16.6063 10.3122C16.8904 10.183 17.2146 10.1094 17.5481 10.0984C17.8817 10.0873 18.2135 10.1392 18.5122 10.249L42.0273 18.9029C42.3523 19.0228 42.6256 19.2069 42.8166 19.4346C43.0076 19.6623 43.1088 19.9247 43.1088 20.1923C43.1088 20.4599 43.0076 20.7223 42.8166 20.95C42.6256 21.1777 42.3523 21.3618 42.0273 21.4817V21.4832Z" fill="#4B72C2"/>
</svg>
